<?xml version="1.0" encoding="UTF-8" standalone="no"?>
<!-- Generator: Adobe Illustrator 21.0.0, SVG Export Plug-In . SVG Version: 6.00 Build 0)  -->
<svg id="Layer_1" style="enable-background:new 0 0 200 150" xmlns="http://www.w3.org/2000/svg" xml:space="preserve" viewBox="0 0 200 150" version="1.1" y="0px" x="0px" xmlns:xlink="http://www.w3.org/1999/xlink">
<style type="text/css">
	.st0{fill:url(#SVGID_1_);}
	.st1{fill:#FFFFFF;}
	.st2{fill:url(#SVGID_2_);}
	.st3{fill:url(#SVGID_3_);}
	.st4{fill:url(#SVGID_4_);}
	.st5{fill:url(#SVGID_5_);}
	.st6{fill:url(#SVGID_6_);}
	.st7{fill:url(#SVGID_7_);}
</style>
		<linearGradient id="SVGID_1_" y2="141.5" gradientUnits="userSpaceOnUse" x2="100" gradientTransform="matrix(1 0 0 -1 0 152)" y1="12.502" x1="100">
		<stop stop-color="#371113" offset="0"/>
		<stop stop-color="#EA202D" offset="1"/>
	</linearGradient>
	<ellipse cy="75" cx="100" rx="97.1" class="st0" ry="64.5"/>
	<path class="st1" d="m8.6 80.3l-0.2 1c-0.6-0.1-1-0.3-1.3-0.6s-0.5-0.8-0.5-1.3c-0.1-0.7 0.1-1.3 0.5-1.8s1-0.8 1.8-0.9c0.9-0.1 1.5 0.1 2.1 0.4 0.5 0.4 0.8 0.9 0.9 1.6 0.1 0.6-0.1 1.1-0.4 1.6-0.2 0.3-0.5 0.5-0.9 0.7l-0.4-1c0.3-0.1 0.4-0.2 0.6-0.4 0.1-0.2 0.2-0.4 0.2-0.7-0.1-0.4-0.2-0.7-0.5-0.9-0.5-0.1-0.9-0.2-1.5-0.1-0.7 0.1-1.1 0.3-1.4 0.5-0.3 0.3-0.3 0.6-0.3 1 0.1 0.3 0.2 0.5 0.3 0.7 0.3 0 0.6 0.2 1 0.2z"/>
	<path class="st1" d="m7.1 82.8l5-1.3 0.9 3.7-0.8 0.2-0.7-2.7-1.1 0.3 0.7 2.5-0.8 0.2-0.7-2.5-1.4 0.3 0.7 2.8-0.8 0.2c0 0.2-1-3.7-1-3.7z"/>
	<path class="st1" d="m8.5 87.8l4.8-1.9 0.8 2c0.2 0.5 0.3 0.9 0.3 1.1s-0.1 0.5-0.2 0.8-0.4 0.4-0.7 0.5c-0.4 0.2-0.7 0.2-1 0.1s-0.6-0.4-0.8-0.8c-0.1 0.3-0.1 0.5-0.2 0.7s-0.3 0.5-0.5 0.9l-0.7 0.9-0.5-1.1 0.8-1.1c0.3-0.4 0.4-0.7 0.5-0.8s0.1-0.3 0.1-0.4-0.1-0.3-0.2-0.5l-0.1-0.2-2 0.8-0.4-1zm3.1-0.1l0.3 0.7c0.2 0.5 0.3 0.8 0.4 0.8 0.1 0.1 0.2 0.2 0.3 0.2 0.1 0.1 0.3 0 0.4-0.1 0.2-0.1 0.3-0.2 0.3-0.3 0.1-0.1 0.1-0.3 0.1-0.4s-0.1-0.3-0.3-0.7l-0.3-0.8-1.2 0.6z"/>
	<path class="st1" d="m11.1 94l3.8-2-0.7-1.4 0.8-0.4 1.9 3.6-0.8 0.4-0.7-1.4-3.8 2c0 0.1-0.5-0.8-0.5-0.8z"/>
	<path class="st1" d="m12.8 97l4.4-2.7 0.5 0.9-4.4 2.7-0.5-0.9z"/>
	<path class="st1" d="m13.9 98.9l4.2-3 2 2.9-0.7 0.5-1.4-2-1 0.7 1.3 1.8-0.7 0.5-1.3-1.8-1.8 1.3-0.6-0.9z"/>
	<path class="st1" d="m16.6 102.5l4.1-3.2 0.7 0.8-4.1 3.2-0.7-0.8z"/>
	<path class="st1" d="m21.7 105.5l0.4 1c-0.5 0.3-1 0.3-1.4 0.3-0.4-0.1-0.9-0.3-1.2-0.7-0.4-0.5-0.7-1.1-0.6-1.7 0.1-0.7 0.4-1.3 1-1.8 0.7-0.6 1.3-0.9 1.9-0.9 0.7 0 1.2 0.3 1.7 0.8 0.4 0.5 0.7 1 0.6 1.5 0 0.3-0.1 0.7-0.3 1l-0.9-0.7c0.2-0.2 0.2-0.4 0.2-0.7s-0.1-0.5-0.3-0.7c-0.3-0.3-0.5-0.4-0.9-0.4s-0.8 0.2-1.2 0.7c-0.5 0.4-0.8 0.8-0.8 1.2-0.1 0.4 0.1 0.7 0.3 0.9s0.4 0.3 0.7 0.3c0.1 0.1 0.4 0.1 0.8-0.1z"/>
	<path class="st1" d="m25.2 111.5l-0.8-0.8 0.5-1.1-1.5-1.4-1.1 0.5-0.8-0.8 5-2.4 0.8 0.8-2.1 5.2zm0-2.8l0.8-1.9-1.8 0.9 1 1z"/>
	<path class="st1" d="m29.5 112.6l0.6 0.9c-0.5 0.3-0.9 0.5-1.4 0.5-0.4 0-0.9-0.2-1.3-0.5-0.5-0.4-0.8-1-0.9-1.6-0.1-0.7 0.2-1.3 0.7-1.9 0.5-0.7 1.1-1 1.8-1.1s1.3 0.1 1.8 0.5 0.8 0.9 0.9 1.4c0.1 0.3 0 0.7-0.2 1.1l-1-0.4c0.1-0.3 0.2-0.5 0.1-0.7s-0.2-0.4-0.4-0.6c-0.3-0.2-0.6-0.3-1-0.3-0.4 0.1-0.7 0.3-1.1 0.8s-0.6 0.9-0.6 1.3 0.2 0.7 0.4 0.9 0.4 0.3 0.7 0.2c0.3-0.2 0.6-0.3 0.9-0.5z"/>
	<path class="st1" d="m29.9 115.2l3-4.2 0.8 0.6-3 4.2-0.8-0.6z"/>
	<path class="st1" d="m32.9 114.3c0.3-0.4 0.6-0.8 0.9-1 0.2-0.2 0.5-0.3 0.8-0.3 0.3-0.1 0.5-0.1 0.8 0s0.7 0.2 1 0.4c0.7 0.4 1 0.9 1.1 1.6s-0.1 1.3-0.5 2-1 1.1-1.6 1.3c-0.7 0.2-1.3 0-1.9-0.4-0.7-0.4-1-0.9-1.1-1.6s0.1-1.3 0.5-2zm1 0.6c-0.3 0.5-0.4 0.9-0.4 1.3 0.1 0.4 0.3 0.7 0.6 0.9s0.7 0.3 1.1 0.2 0.8-0.4 1.1-0.9 0.4-0.9 0.4-1.3c-0.1-0.4-0.3-0.7-0.6-0.9-0.4-0.2-0.7-0.3-1.1-0.2-0.5 0.1-0.8 0.4-1.1 0.9zm2.1-2l1-0.6 0.9 0.6-1.4 0.3-0.5-0.3z"/>
	<path class="st1" d="m36.6 119.7l2.6-4.5 0.9 0.5 0.1 4.1 1.7-3 0.8 0.5-2.6 4.5-0.9-0.5-0.1-3.9-1.7 2.9-0.8-0.6z"/>
	<path class="st1" d="m45.3 118.6l1.7 0.8c0.4 0.2 0.7 0.3 0.8 0.5 0.2 0.2 0.4 0.5 0.5 0.8s0.1 0.6 0.1 1c-0.1 0.3-0.2 0.7-0.4 1.1s-0.4 0.7-0.6 0.9c-0.3 0.3-0.6 0.5-0.9 0.6-0.2 0.1-0.5 0.1-0.8 0.1-0.2-0.1-0.5-0.1-0.9-0.3l-1.8-0.8 2.3-4.7zm0.6 1.3l-1.5 3.1 0.7 0.3c0.3 0.1 0.4 0.2 0.6 0.2 0.2 0.1 0.3 0.1 0.5 0s0.3-0.2 0.4-0.3c0.2-0.2 0.3-0.4 0.5-0.8s0.3-0.7 0.3-0.9c0.1-0.2 0-0.4-0.1-0.6s-0.2-0.3-0.3-0.4-0.4-0.2-0.8-0.4l-0.3-0.2z"/>
	<path class="st1" d="m47.9 125.6l2-4.8 3.5 1.5-0.3 0.8-2.6-1.1-0.4 1 2.4 1-0.3 0.8-2.4-1-0.5 1.3 2.7 1.1-0.3 0.8-3.8-1.4z"/>
	<path class="st1" d="m54.4 128.2l1.7-4.9 1.6 0.5c0.6 0.2 1 0.4 1.1 0.5 0.3 0.2 0.4 0.4 0.5 0.7s0.1 0.7-0.1 1c-0.1 0.3-0.2 0.5-0.4 0.7s-0.4 0.3-0.6 0.3c-0.2 0.1-0.4 0.1-0.6 0.1-0.3-0.1-0.6-0.1-1-0.3l-0.7-0.2-0.7 1.9-0.8-0.3zm2.4-3.7l-0.5 1.4 0.5 0.2c0.4 0.1 0.7 0.2 0.8 0.2s0.3-0.1 0.4-0.1c0.1-0.1 0.2-0.2 0.2-0.3 0.1-0.2 0.1-0.3 0-0.5s-0.1-0.4-0.2-0.4c-0.1-0.1-0.3-0.2-0.7-0.3l-0.5-0.2z"/>
	<path class="st1" d="m59.1 129.8l1.5-4.9 3.7 1.1-0.3 0.8-2.7-0.8-0.3 1.1 2.5 0.8-0.3 0.8-2.5-0.8-0.4 1.4 2.7 0.8-0.3 0.8-3.6-1.1z"/>
	<path class="st1" d="m63.8 131.2l1.3-5 2.1 0.5c0.5 0.2 0.9 0.3 1.1 0.4 0.2 0.2 0.4 0.4 0.4 0.6 0.1 0.3 0.1 0.5 0 0.8-0.1 0.4-0.3 0.7-0.5 0.8-0.3 0.2-0.7 0.3-1.1 0.2 0.2 0.2 0.3 0.4 0.4 0.5s0.2 0.5 0.4 1l0.4 1.1-1.2-0.3-0.4-1.3c-0.2-0.4-0.3-0.8-0.3-0.9l-0.3-0.3c-0.1-0.1-0.3-0.1-0.5-0.2l-0.2-0.1-0.5 2.1-1.1 0.1zm1.7-2.7l0.8 0.2c0.5 0.1 0.8 0.2 0.9 0.2s0.2-0.1 0.3-0.2c0.1-0.1 0.2-0.2 0.2-0.3 0.1-0.2 0.1-0.3-0.1-0.4l-0.3-0.3c-0.1-0.1-0.3-0.1-0.7-0.2l-0.8-0.2-0.3 1.2z"/>
	<path class="st1" d="m68.8 130.7l1 0.1c0 0.3 0.1 0.6 0.2 0.8 0.2 0.2 0.4 0.3 0.7 0.4s0.6 0.1 0.8-0.1c0.2-0.1 0.3-0.3 0.3-0.4s0-0.2-0.1-0.3-0.2-0.2-0.3-0.3c-0.1-0.1-0.4-0.2-0.8-0.4-0.5-0.3-0.9-0.5-1-0.8-0.3-0.3-0.3-0.7-0.2-1.1 0.1-0.3 0.2-0.5 0.4-0.7s0.4-0.3 0.8-0.4c0.3-0.1 0.7-0.1 1 0.1 0.7 0.2 1.1 0.4 1.3 0.7 0.3 0.3 0.3 0.8 0.3 1.2l-1-0.2c0-0.3-0.1-0.5-0.2-0.6-0.1-0.2-0.3-0.3-0.6-0.3-0.3-0.1-0.5-0.1-0.7 0.1-0.1 0.1-0.2 0.2-0.2 0.3s0 0.2 0.1 0.3c0.1 0.1 0.4 0.3 0.9 0.5s0.8 0.4 1 0.6 0.4 0.4 0.4 0.7c0.1 0.2 0.1 0.5 0 0.8s-0.2 0.5-0.4 0.8c-0.2 0.2-0.5 0.3-0.8 0.4s-0.7 0.1-1.1-0.1c-0.7-0.2-1.1-0.4-1.4-0.8-0.3-0.2-0.4-0.7-0.4-1.3z"/>
	<path class="st1" d="m73.6 130.9c0.1-0.5 0.2-0.9 0.4-1.3l0.6-0.6c0.2-0.2 0.5-0.3 0.7-0.3 0.3-0.1 0.7-0.1 1.1 0 0.8 0.1 1.3 0.5 1.7 1s0.5 1.2 0.3 2.1c-0.2 0.8-0.5 1.4-1 1.8s-1.1 0.5-1.9 0.4-1.3-0.5-1.7-1c-0.2-0.6-0.3-1.3-0.2-2.1zm1.1 0.1c-0.1 0.6-0.1 1 0.2 1.4 0.2 0.3 0.5 0.5 0.9 0.6s0.8 0 1.1-0.3 0.5-0.7 0.6-1.3c0.1-0.6 0.1-1-0.2-1.4-0.2-0.3-0.5-0.5-0.9-0.6s-0.8 0-1.1 0.3-0.5 0.8-0.6 1.3z"/>
	<path class="st1" d="m78.9 134.4l0.7-5.1 1 0.2 1.6 3.7 0.5-3.4 1 0.1-0.7 5.1-1-0.2-1.6-3.7-0.4 3.3h-1.1z"/>
	<path class="st1" d="m88.6 135.5l-1.1-0.1-0.3-1.2-2-0.2-0.5 1.1-1.1-0.1 2.5-4.9 1.1 0.1 1.4 5.3zm-1.7-2.2l-0.5-2-0.9 1.9 1.4 0.1z"/>
	<path class="st1" d="m89 133.9l1-0.1c0.1 0.3 0.2 0.6 0.3 0.8 0.2 0.2 0.4 0.3 0.7 0.3s0.6-0.1 0.8-0.2 0.3-0.3 0.3-0.5c0-0.1 0-0.2-0.1-0.3s-0.2-0.2-0.4-0.3c-0.1-0.1-0.4-0.2-0.8-0.3-0.5-0.2-0.9-0.4-1.1-0.6-0.3-0.3-0.4-0.7-0.4-1s0.1-0.5 0.3-0.7 0.4-0.4 0.7-0.5 0.6-0.2 1-0.1c0.7 0.1 1.1 0.2 1.4 0.5s0.4 0.7 0.4 1.1h-1c-0.1-0.3-0.1-0.4-0.3-0.6-0.2-0.1-0.3-0.2-0.7-0.2s-0.5 0.1-0.7 0.2c-0.1 0.1-0.2 0.2-0.2 0.3s0.1 0.2 0.1 0.3c0.1 0.1 0.4 0.3 0.9 0.4 0.5 0.2 0.9 0.3 1.1 0.4s0.4 0.3 0.5 0.5c0.1 0.2 0.2 0.5 0.2 0.8s-0.1 0.5-0.3 0.8-0.4 0.4-0.7 0.5-0.7 0.2-1.1 0.1c-0.7-0.1-1.1-0.2-1.5-0.5-0.2-0.1-0.4-0.5-0.4-1.1z"/>
	<path class="st1" d="m95.9 135.9l0.1-5.1 1.7 0.1c0.7 0 1 0.1 1.3 0.1 0.3 0.1 0.5 0.3 0.7 0.5 0.2 0.3 0.3 0.6 0.3 1 0 0.3-0.1 0.6-0.2 0.8s-0.3 0.4-0.4 0.5c-0.2 0.1-0.4 0.2-0.5 0.2-0.3 0.1-0.6 0.1-1.1 0.1h-0.8l-0.1 2-1-0.2zm1.1-4.3v1.5h0.5c0.4 0 0.7 0 0.8-0.1 0.2-0.1 0.3-0.1 0.3-0.3 0.1-0.1 0.1-0.3 0.1-0.4 0-0.2-0.1-0.3-0.2-0.5-0.1-0.1-0.3-0.2-0.4-0.2s-0.4-0.1-0.8-0.1h-0.3z"/>
	<path class="st1" d="m100.4 133.4c0-0.5 0.1-1 0.2-1.3s0.3-0.5 0.5-0.7 0.4-0.4 0.7-0.5c0.3-0.2 0.7-0.2 1.1-0.2 0.8 0 1.4 0.2 1.9 0.7 0.4 0.4 0.7 1.1 0.7 2 0 0.8-0.2 1.5-0.7 2-0.4 0.5-1 0.7-1.8 0.8-0.8 0-1.4-0.2-1.9-0.7-0.4-0.6-0.6-1.3-0.7-2.1zm1.1 0c0 0.6 0.2 1 0.4 1.3 0.3 0.3 0.6 0.4 1 0.4s0.8-0.2 1-0.5c0.3-0.3 0.4-0.8 0.4-1.4s-0.2-1-0.4-1.3c-0.3-0.3-0.6-0.4-1-0.4s-0.8 0.2-1 0.4c-0.3 0.4-0.4 0.9-0.4 1.5z"/>
	<path class="st1" d="m106.3 135.8l-0.3-5.1 2.2-0.1c0.5-0.1 0.9 0 1.2 0.1s0.4 0.2 0.6 0.4 0.3 0.5 0.3 0.8c0 0.4-0.1 0.7-0.3 1s-0.5 0.4-1 0.5c0.2 0.1 0.4 0.3 0.6 0.4 0.2 0.2 0.4 0.4 0.7 0.8l0.7 1-1.3 0.1-0.8-1.1c-0.3-0.4-0.5-0.6-0.6-0.7s-0.2-0.2-0.3-0.2c-0.1-0.1-0.3-0.1-0.5-0.1h-0.2l0.1 2.1-1.1 0.1zm0.9-3l0.8-0.1c0.5-0.1 0.8-0.1 0.9-0.1 0.1-0.1 0.2-0.1 0.3-0.2s0.1-0.2 0.1-0.4-0.1-0.3-0.2-0.4-0.2-0.2-0.4-0.2h-0.8l-0.8 0.1 0.1 1.3z"/>
	<path class="st1" d="m116.5 133.1l1 0.2c-0.1 0.6-0.3 1-0.7 1.3-0.3 0.3-0.8 0.5-1.3 0.5-0.7 0.1-1.3-0.1-1.8-0.5s-0.8-1-0.9-1.9 0.1-1.5 0.4-2.1c0.4-0.5 0.9-0.8 1.6-0.9 0.6-0.1 1.1 0.1 1.6 0.4 0.3 0.2 0.5 0.5 0.6 0.9l-1 0.3c-0.1-0.3-0.2-0.4-0.4-0.6-0.2-0.1-0.4-0.2-0.7-0.2-0.4 0.1-0.7 0.2-0.9 0.5s-0.3 0.8-0.2 1.4c0.1 0.7 0.2 1.1 0.5 1.4s0.6 0.3 0.9 0.3c0.3-0.1 0.5-0.2 0.7-0.3 0.3 0 0.6-0.3 0.6-0.7z"/>
	<path class="st1" d="m118 132.3c-0.1-0.5-0.1-1 0.1-1.4 0.1-0.3 0.2-0.5 0.4-0.8 0.2-0.2 0.4-0.4 0.6-0.5 0.3-0.2 0.7-0.3 1.1-0.4 0.8-0.1 1.4 0.1 1.9 0.4 0.5 0.4 0.8 1 1 1.9 0.1 0.8 0 1.5-0.4 2s-0.9 0.9-1.7 1c-0.8 0.1-1.4-0.1-1.9-0.4-0.7-0.4-1-1-1.1-1.8zm1-0.1c0.1 0.6 0.3 1 0.6 1.3s0.7 0.4 1.1 0.3c0.4-0.1 0.7-0.3 0.9-0.6s0.3-0.8 0.2-1.4-0.3-1-0.6-1.3-0.7-0.3-1.1-0.3c-0.4 0.1-0.8 0.3-1 0.6-0.1 0.3-0.2 0.8-0.1 1.4z"/>
	<path class="st1" d="m124 134l-1-5.1 1.5-0.3 1.6 3.3 0.3-3.6 1.5-0.3 1 5.1-0.9 0.2-0.8-4-0.3 4.2-1 0.2-1.8-3.8 0.8 4-0.9 0.1z"/>
	<path class="st1" d="m129.9 132.9l-1.1-5 1.6-0.4c0.6-0.2 1-0.2 1.2-0.2 0.3 0 0.6 0.1 0.8 0.3 0.3 0.2 0.4 0.5 0.5 0.9 0.1 0.3 0.1 0.6 0 0.8l-0.3 0.6s-0.3 0.3-0.5 0.4c-0.2 0.1-0.6 0.2-1 0.3l-0.7 0.2 0.4 1.9-0.9 0.2zm0-4.5l0.3 1.4 0.5-0.1c0.4-0.1 0.7-0.2 0.8-0.3l0.3-0.3c0.1-0.1 0.1-0.3 0-0.4-0.1-0.2-0.1-0.3-0.3-0.4-0.1-0.1-0.3-0.1-0.4-0.1s-0.4 0.1-0.7 0.1l-0.5 0.1z"/>
	<path class="st1" d="m134.5 131.8l-1.4-5 3.7-1 0.2 0.8-2.7 0.7 0.3 1.1 2.5-0.7 0.2 0.8-2.5 0.7 0.4 1.4 2.8-0.8 0.2 0.8-3.7 1.2z"/>
	<path class="st1" d="m140.4 130.1l-1.3-4.1-1.5 0.4-0.3-0.8 3.9-1.2 0.3 0.8-1.5 0.4 1.3 4.1-0.9 0.4z"/>
	<path class="st1" d="m143.5 129.1l-1.8-4.9 3.6-1.3 0.3 0.8-2.6 0.9 0.4 1.1 2.5-0.9 0.3 0.8-2.5 0.9 0.5 1.3 2.7-1 0.3 0.8-3.7 1.5z"/>
	<path class="st1" d="m148.2 127.4l-2-4.8 0.9-0.4 3.3 2.4-1.3-3.2 0.9-0.4 2 4.8-1 0.4-3.2-2.3 1.3 3.1-0.9 0.4z"/>
	<path class="st1" d="m155.3 122.2l1-0.2c0.1 0.6 0.1 1-0.2 1.5-0.2 0.4-0.5 0.7-1 0.9-0.6 0.3-1.2 0.3-1.8 0.1s-1.1-0.7-1.4-1.5c-0.4-0.8-0.4-1.5-0.3-2.1 0.2-0.6 0.6-1.1 1.3-1.4 0.5-0.3 1.1-0.3 1.6-0.2 0.3 0.1 0.6 0.3 0.9 0.7l-0.8 0.7c-0.2-0.2-0.4-0.3-0.6-0.4s-0.5-0.1-0.7 0.1c-0.3 0.2-0.5 0.4-0.7 0.8s0 0.8 0.2 1.4c0.3 0.6 0.6 1 0.9 1.1 0.3 0.2 0.7 0.2 1 0 0.3-0.1 0.4-0.3 0.5-0.5 0.2-0.3 0.2-0.6 0.1-1z"/>
	<path class="st1" d="m157.9 123l-2.4-4.6 0.9-0.5 2.4 4.6-0.9 0.5z"/>
	<path class="st1" d="m163.9 119.7l-1 0.5-1-0.8-1.8 1 0.2 1.2-1 0.5-0.8-5.5 1-0.5 4.4 3.6zm-2.7-0.8l-1.6-1.3 0.3 2 1.3-0.7z"/>
	<path class="st1" d="m163.3 118.1l0.8-0.7c0.2 0.3 0.5 0.4 0.7 0.4 0.2 0.1 0.5-0.1 0.8-0.2 0.3-0.2 0.4-0.4 0.5-0.6s0.1-0.4-0.1-0.5c-0.1-0.1-0.2-0.2-0.3-0.2s-0.3-0.1-0.4 0c-0.1 0.1-0.4 0.1-0.8 0.3-0.5 0.2-1 0.3-1.3 0.2-0.4-0.1-0.8-0.3-1-0.6-0.2-0.2-0.2-0.5-0.2-0.8s0.1-0.5 0.3-0.8 0.4-0.5 0.8-0.7c0.5-0.3 1-0.5 1.5-0.4 0.4 0.1 0.8 0.3 1 0.7l-0.9 0.6c-0.2-0.2-0.4-0.3-0.5-0.3s-0.4 0.1-0.7 0.2c-0.3 0.2-0.4 0.3-0.5 0.5-0.1 0.1-0.1 0.3 0.1 0.4 0.1 0.1 0.2 0.2 0.3 0.2 0.2 0 0.5-0.1 1-0.2 0.5-0.2 0.9-0.3 1.1-0.3s0.5 0 0.8 0.1c0.2 0.1 0.4 0.3 0.6 0.6s0.2 0.5 0.2 0.8-0.1 0.6-0.3 0.9-0.5 0.5-0.8 0.8c-0.5 0.3-1 0.5-1.5 0.4-0.4-0.1-0.8-0.4-1.2-0.8z"/>
	<path class="st1" d="m170.4 115.4l-3.1-4.1 0.8-0.7 2.6 3.4 2.1-1.6 0.5 0.7-2.9 2.3z"/>
	<path class="st1" d="m177.5 109.5l-0.9 0.8-1.1-0.6-1.5 1.4 0.4 1.1-0.8 0.7-1.9-5.2 0.8-0.7 5 2.5zm-2.8-0.2l-1.8-1 0.7 1.9 1.1-0.9z"/>
	<path class="st1" d="m174.4 105.4l1.4-1.5c0.3-0.3 0.5-0.5 0.7-0.6s0.3-0.2 0.5-0.2c0.2-0.1 0.4-0.1 0.6 0s0.4 0.2 0.5 0.3c0.2 0.2 0.3 0.4 0.3 0.6 0.1 0.2 0.1 0.5-0.1 0.7 0.3-0.2 0.5-0.2 0.8-0.2 0.3 0.1 0.5 0.2 0.7 0.4s0.3 0.4 0.4 0.6 0.1 0.4 0.1 0.7c-0.1 0.2-0.2 0.4-0.3 0.7-0.1 0.2-0.4 0.4-0.9 0.9l-1.2 1.3-3.5-3.7zm1.3-0.2l0.9 0.8 0.5-0.5c0.3-0.3 0.4-0.5 0.5-0.5 0.1-0.2 0.2-0.3 0.2-0.4s-0.1-0.3-0.2-0.4-0.2-0.2-0.4-0.2c-0.1 0-0.3 0.1-0.4 0.2s-0.3 0.3-0.7 0.6l-0.4 0.4zm1.5 1.4l1 1 0.7-0.7 0.5-0.5c0.1-0.1 0.1-0.3 0.1-0.4 0-0.2-0.1-0.3-0.2-0.4s-0.2-0.2-0.4-0.2c-0.1 0-0.3 0-0.4 0.1s-0.4 0.3-0.7 0.6l-0.6 0.5z"/>
	<path class="st1" d="m179.8 103.6c-0.4-0.3-0.7-0.7-0.9-1-0.1-0.3-0.2-0.5-0.3-0.8s0-0.5 0.1-0.8 0.3-0.7 0.5-1c0.5-0.6 1-0.9 1.7-1s1.3 0.2 2 0.7 1 1.1 1.1 1.8c0.1 0.7-0.1 1.3-0.6 1.9s-1 0.9-1.7 1c-0.7-0.1-1.3-0.3-1.9-0.8zm0.6-0.9c0.4 0.4 0.9 0.5 1.3 0.5s0.7-0.2 1-0.5 0.4-0.7 0.3-1.1c-0.1-0.4-0.3-0.8-0.8-1.1-0.4-0.4-0.9-0.5-1.3-0.5s-0.7 0.2-1 0.5-0.4 0.7-0.3 1.1c0.1 0.3 0.3 0.7 0.8 1.1z"/>
	<path class="st1" d="m185.6 100.4l-4.3-2.8 1.2-1.9c0.3-0.4 0.5-0.8 0.8-0.9 0.2-0.2 0.4-0.2 0.8-0.2 0.3 0 0.5 0.1 0.8 0.3s0.5 0.5 0.6 0.8 0.1 0.7-0.2 1.1c0.2-0.1 0.4-0.2 0.7-0.2 0.2-0.1 0.5-0.1 1-0.1h1.2l-0.7 1h-1.4c-0.5 0-0.8 0-0.9 0.1s-0.3 0.1-0.3 0.2c-0.1 0.1-0.2 0.2-0.3 0.4l-0.2 0.3 1.8 1.2-0.6 0.7zm-1.9-2.5l0.4-0.7c0.3-0.4 0.4-0.7 0.4-0.8 0.1-0.1 0-0.3 0-0.4-0.1-0.1-0.1-0.2-0.3-0.3s-0.3-0.1-0.4-0.1-0.3 0.1-0.4 0.2c-0.1 0.1-0.2 0.3-0.4 0.6l-0.4 0.7 1.1 0.8z"/>
	<path class="st1" d="m190.7 91.5l-0.5 1-1.3-0.1-0.9 1.9 0.9 0.9-0.5 1-3.7-4.1 0.5-1 5.5 0.4zm-2.8 0.8l-2-0.2 1.4 1.5 0.6-1.3z"/>
	<path class="st1" d="m191 90.7l-4.8-1.8 0.4-1 4 1.5 0.9-2.4 0.8 0.3-1.3 3.4z"/>
	<path class="st1" d="m192.6 86.2l-5-1.3 0.9-3.7 0.8 0.2-0.7 2.7 1.1 0.3 0.6-2.5 0.8 0.2-0.6 2.5 1.5 0.4 0.7-2.8 0.8 0.2-0.9 3.8z"/>
	<path class="st1" d="m192 81.2v-1c0.3 0 0.6-0.1 0.8-0.3s0.3-0.4 0.3-0.7c0.1-0.3 0-0.6-0.1-0.8s-0.3-0.3-0.4-0.3-0.2 0-0.3 0.1l-0.3 0.3c-0.1 0.1-0.2 0.4-0.3 0.8-0.2 0.5-0.4 0.9-0.7 1.1-0.3 0.3-0.7 0.4-1.1 0.3-0.3-0.1-0.5-0.1-0.7-0.3s-0.4-0.4-0.4-0.7c-0.1-0.3-0.1-0.7-0.1-1 0.1-0.7 0.3-1.1 0.6-1.4s0.7-0.4 1.2-0.4l-0.1 1c-0.3 0-0.5 0.1-0.6 0.2s-0.2 0.3-0.3 0.7c-0.1 0.3 0 0.5 0.1 0.7 0.1 0.1 0.2 0.2 0.3 0.2s0.2 0 0.3-0.1 0.3-0.4 0.4-0.9c0.2-0.5 0.3-0.8 0.5-1.1 0.2-0.2 0.3-0.4 0.6-0.5 0.2-0.1 0.5-0.2 0.8-0.1s0.5 0.2 0.8 0.3c0.2 0.2 0.4 0.4 0.5 0.8 0.1 0.3 0.1 0.7 0.1 1.1-0.1 0.7-0.3 1.1-0.6 1.4-0.2 0.4-0.7 0.6-1.3 0.6z"/>
	<ellipse cy="75.1" cx="100.3" rx="78.4" class="st1" ry="49.8"/>
		<linearGradient id="SVGID_2_" y2="106.29" gradientUnits="userSpaceOnUse" x2="114.78" gradientTransform="matrix(1 0 0 -1 0 152)" y1="30.954" x1="114.78">
		<stop stop-color="#231F20" offset="0"/>
		<stop stop-color="#DCDBDF" offset="1"/>
	</linearGradient>
	<path class="st2" d="m70.4 81.6l28.9 15.7s19.6-37.5 59.8-51.6c0 0-44.1 26.1-54 75.3l-34.7-39.4z"/>
		<linearGradient id="SVGID_3_" y2="116.87" gradientUnits="userSpaceOnUse" x2="150.47" gradientTransform="matrix(1 0 0 -1 0 152)" y1="50.815" x1="84.409">
		<stop stop-color="#E9242E" offset="0"/>
		<stop stop-color="#DF242E" offset=".1053"/>
		<stop stop-color="#C4242C" offset=".2846"/>
		<stop stop-color="#98242B" offset=".5162"/>
		<stop stop-color="#5C2528" offset=".7879"/>
		<stop stop-color="#282526" offset="1"/>
	</linearGradient>
	<path class="st3" d="m68.6 79.2l28.9 16.2s19.6-38.8 59.8-53.4c0 0-44.1 27-54 78.1l-34.7-40.9z"/>
		<linearGradient id="SVGID_4_" y2="106.29" gradientUnits="userSpaceOnUse" x2="97.153" gradientTransform="matrix(1 0 0 -1 0 152)" y1="30.954" x1="97.153">
		<stop stop-color="#231F20" offset="0"/>
		<stop stop-color="#DCDBDF" offset="1"/>
	</linearGradient>
	<path class="st4" d="m52.8 81.6l28.9 15.7s19.6-37.5 59.8-51.6c0 0-44.1 26.1-54 75.3l-34.7-39.4z"/>
		<linearGradient id="SVGID_5_" y2="116.87" gradientUnits="userSpaceOnUse" x2="132.84" gradientTransform="matrix(1 0 0 -1 0 152)" y1="50.815" x1="66.779">
		<stop stop-color="#1DAEEC" offset="0"/>
		<stop stop-color="#1EA7E2" offset=".1033"/>
		<stop stop-color="#1F94C7" offset=".2791"/>
		<stop stop-color="#21769B" offset=".5063"/>
		<stop stop-color="#254C5F" offset=".7728"/>
		<stop stop-color="#282526" offset="1"/>
	</linearGradient>
	<path class="st5" d="m51 79.2l28.9 16.2s19.6-38.8 59.8-53.4c0 0-44.1 27-54 78.1l-34.7-40.9z"/>
		<linearGradient id="SVGID_6_" y2="107.22" gradientUnits="userSpaceOnUse" x2="80.946" gradientTransform="matrix(1 0 0 -1 0 152)" y1="31.884" x1="80.946">
		<stop stop-color="#231F20" offset="0"/>
		<stop stop-color="#DCDBDF" offset="1"/>
	</linearGradient>
	<path class="st6" d="m36.6 80.7l28.9 15.7s19.6-37.5 59.8-51.6c0 0-44.1 26.1-54 75.3l-34.7-39.4z"/>
		<linearGradient id="SVGID_7_" y2="117.92" gradientUnits="userSpaceOnUse" x2="116.63" gradientTransform="matrix(1 0 0 -1 0 152)" y1="51.854" x1="50.572">
		<stop stop-color="#FDF035" offset="0"/>
		<stop stop-color="#F3E634" offset=".097704"/>
		<stop stop-color="#D8CD32" offset=".2641"/>
		<stop stop-color="#ACA32F" offset=".4791"/>
		<stop stop-color="#6F692B" offset=".7342"/>
		<stop stop-color="#282526" offset="1"/>
	</linearGradient>
	<path class="st7" d="m34.8 78.2l28.9 16.2s19.6-38.8 59.8-53.4c0 0-44.1 27-54 78.1l-34.7-40.9z"/>
	<path d="m59 56.1h-3.2l-8.3-9.3v9.3h-3.2v-13.8h3.2l8.3 9.2v-9.2h3.2v13.8z"/>
	<path d="m75.5 56.1h-10.7c-1.3 0-2.3-0.4-3.2-1.3-0.9-0.8-1.3-1.9-1.3-3.1v-5c0-1.3 0.4-2.3 1.3-3.1s1.9-1.3 3.2-1.3h10.7v3.2h-10.7c-0.9 0-1.3 0.4-1.3 1.1v5c0 0.8 0.4 1.1 1.3 1.1h10.7v3.4z"/>
	<path d="m90.6 56.1h-13.8v-13.8h3.2v10.6h10.6v3.2z"/>
	<path d="m46.8 61.4h-1.8c-0.2 0-0.4-0.1-0.5-0.2s-0.2-0.3-0.2-0.5v-0.9c0-0.2 0.1-0.4 0.2-0.5s0.3-0.3 0.5-0.3h1.8v0.5h-1.8c-0.2 0-0.2 0.1-0.2 0.2v0.9c0 0.1 0.1 0.2 0.2 0.2h1.8v0.6z"/>
	<path d="m49.5 59.6h-2v0.3h1.8v0.5h-1.8v0.3h2v0.5h-2.5v-2.2h2.5v0.6z"/>
	<path d="m52.5 61.4h-0.8l-1.1-1.3h1.4c0.1 0 0.2-0.1 0.2-0.2s-0.1-0.2-0.2-0.2h-1.7v1.8h-0.5v-2.4h2.2c0.2 0 0.4 0.1 0.5 0.2s0.2 0.3 0.2 0.5c0 0.2-0.1 0.4-0.2 0.5s-0.3 0.2-0.5 0.2h-0.2l0.7 0.9z"/>
	<path d="m55.5 59.6h-1v1.8h-0.5v-1.8h-1v-0.5h2.7l-0.2 0.5z"/>
	<path d="m56.3 61.4h-0.5v-2.4h0.5v2.4z"/>
	<path d="m59 59.6h-2v0.3h1.8v0.5h-1.8v0.9h-0.5v-2.3h2.5v0.6z"/>
	<path d="m59.7 61.4h-0.5v-2.4h0.5v2.4z"/>
	<path d="m62.5 61.4h-1.8c-0.2 0-0.4-0.1-0.5-0.2s-0.2-0.3-0.2-0.5v-0.9c0-0.2 0.1-0.4 0.2-0.5 0.2-0.2 0.3-0.2 0.5-0.2h1.8v0.5h-1.8c-0.2 0-0.2 0.1-0.2 0.2v0.9c0 0.1 0.1 0.2 0.2 0.2h1.8v0.5z"/>
	<path d="m65.6 61.4h-0.5v-0.8h-1.4v-0.5h1.4v-0.3c0-0.1-0.1-0.2-0.1-0.2h-1.5c-0.1 0-0.1 0.1-0.1 0.2v1.6h-0.5v-1.6c0-0.2 0.1-0.4 0.2-0.5 0.1-0.2 0.3-0.2 0.5-0.2h1.4c0.2 0 0.4 0.1 0.5 0.2 0.1 0.2 0.2 0.3 0.2 0.5v1.6z"/>
	<path d="m68.4 61.4h-1.8c-0.2 0-0.4-0.1-0.5-0.2-0.2-0.2-0.2-0.3-0.2-0.5v-0.9c0-0.2 0.1-0.4 0.2-0.5 0.2-0.2 0.3-0.2 0.5-0.2h1.8v0.5h-1.8c-0.2 0-0.2 0.1-0.2 0.2v0.9c0 0.1 0.1 0.2 0.2 0.2h1.8v0.5z"/>
	<path d="m69.2 61.4h-0.5v-2.4h0.5v2.4z"/>
	<path d="m72.4 60.7c0 0.2-0.1 0.4-0.2 0.5s-0.3 0.2-0.5 0.2h-1.4c-0.2 0-0.4-0.1-0.5-0.2-0.2-0.2-0.2-0.3-0.2-0.5v-0.9c0-0.2 0.1-0.4 0.2-0.5 0.2-0.2 0.3-0.2 0.5-0.2h1.4c0.2 0 0.4 0.1 0.5 0.2s0.2 0.3 0.2 0.5v0.9zm-0.6 0v-0.9c0-0.1-0.1-0.2-0.2-0.2h-1.4c-0.2 0-0.2 0.1-0.2 0.2v0.9c0 0.1 0.1 0.2 0.2 0.2h1.4c0.1 0 0.2-0.1 0.2-0.2z"/>
	<path d="m75.1 61.4h-0.5l-1.4-1.6v1.6h-0.5v-2.4h0.5l1.4 1.6v-1.6h0.5v2.4z"/>
	<path d="m77.8 59.6h-2v0.3h1.8v0.5h-1.8v0.3h2v0.5h-2.5v-2.2h2.5v0.6z"/>
	<path d="m80.8 60.7c0 0.2-0.1 0.4-0.2 0.5-0.1 0.2-0.3 0.2-0.5 0.2h-2v-0.5h2c0.1 0 0.1-0.1 0.1-0.2s-0.1-0.2-0.1-0.2h-1.5c-0.2 0-0.3-0.1-0.5-0.2 0-0.1-0.1-0.3-0.1-0.5s0.1-0.4 0.2-0.5c0.1-0.2 0.3-0.2 0.5-0.2h2v0.5h-2c-0.1 0-0.1 0.1-0.1 0.2s0.1 0.2 0.1 0.2h1.5c0.2 0 0.4 0.1 0.5 0.2s0.1 0.3 0.1 0.5z"/>
	<path d="m47 64.9c0 0.2-0.1 0.4-0.2 0.5-0.1 0.2-0.3 0.2-0.5 0.2h-2v-0.5h2c0.1 0 0.1-0.1 0.1-0.2s-0.1-0.2-0.1-0.2h-1.5c-0.2 0-0.3-0.1-0.5-0.2-0.1-0.1-0.2-0.3-0.2-0.5s0.1-0.4 0.2-0.5 0.3-0.2 0.5-0.2h2v0.5h-2c-0.1 0-0.1 0.1-0.1 0.2s0.1 0.2 0.1 0.2h1.5c0.2 0 0.4 0.1 0.5 0.2s0.2 0.3 0.2 0.5z"/>
	<path d="m47.9 65.6h-0.7v-0.5h0.7v0.5z"/>
	<path d="m51 65.6h-0.5v-0.7h-1.5v-0.5h1.4v-0.4c0-0.1-0.1-0.2-0.1-0.2h-1.5c-0.1 0-0.1 0.1-0.1 0.2v1.6h-0.5v-1.6c0-0.2 0.1-0.4 0.2-0.5 0.1-0.2 0.3-0.2 0.5-0.2h1.5c0.2 0 0.4 0.1 0.5 0.2 0.1 0.2 0.2 0.3 0.2 0.5v1.6h-0.1z"/>
	<path d="m51.9 65.6h-0.7v-0.5h0.7v0.5z"/>
	<path d="m54.9 64.9c0 0.2-0.1 0.4-0.2 0.5-0.1 0.2-0.3 0.2-0.5 0.2h-2v-0.5h2c0.1 0 0.1-0.1 0.1-0.2s-0.1-0.2-0.1-0.2h-1.5c-0.2 0-0.3-0.1-0.5-0.2-0.1-0.1-0.2-0.3-0.2-0.5s0.1-0.4 0.2-0.5c0.1-0.2 0.3-0.2 0.5-0.2h2v0.5h-2c-0.1 0-0.1 0.1-0.1 0.2s0.1 0.2 0.1 0.2h1.5c0.2 0 0.4 0.1 0.5 0.2s0.2 0.3 0.2 0.5z"/>
	<path d="m55.8 65.6h-0.7v-0.5h0.7v0.5z"/>
	<path d="m131.4 90.1h-1.1l-2.8-3.2v3.2h-1.1v-4.7h1.1l2.8 3.2v-3.2h1.1v4.7z"/>
	<path d="m137.3 86.4h-2.1v3.6h-1.1v-3.6h-2.1v-1.1h5.4v1.1z"/>
	<path d="m142.9 90.1h-3.7c-0.4 0-0.8-0.2-1.1-0.4-0.3-0.3-0.4-0.7-0.4-1.1v-1.8c0-0.4 0.2-0.8 0.4-1.1 0.3-0.3 0.7-0.4 1.1-0.4h3.7v1.1h-3.7c-0.3 0-0.4 0.1-0.4 0.4v1.8c0 0.3 0.2 0.4 0.4 0.4h3.7v1.1z"/>
	<path d="m127.5 96.4h-1.1v-4.7h1.1v4.7z"/>
	<path d="m133.6 94.9c0 0.4-0.1 0.7-0.4 1s-0.6 0.4-1 0.4h-4.1v-1.1h4.1c0.2 0 0.2-0.1 0.2-0.3s-0.1-0.3-0.2-0.3h-3c-0.4 0-0.7-0.2-1-0.4-0.2-0.3-0.4-0.6-0.4-1s0.1-0.8 0.4-1c0.3-0.3 0.5-0.4 1-0.4h4.1v1.1h-4.1c-0.2 0-0.2 0.1-0.2 0.4 0 0.2 0.1 0.3 0.2 0.3h3c0.4 0 0.7 0.2 1 0.4s0.4 0.5 0.4 0.9z"/>
	<path d="m139.9 94.9c0 0.4-0.2 0.8-0.4 1.1-0.3 0.3-0.7 0.4-1.1 0.4h-2.8c-0.4 0-0.8-0.2-1.1-0.4-0.3-0.3-0.4-0.7-0.4-1.1v-1.8c0-0.4 0.2-0.8 0.4-1.1 0.3-0.3 0.7-0.4 1.1-0.4h2.8c0.4 0 0.8 0.2 1.1 0.4 0.3 0.3 0.4 0.7 0.4 1.1v1.8zm-1.1 0v-1.8c0-0.3-0.2-0.4-0.4-0.4h-2.8c-0.3 0-0.4 0.1-0.4 0.4v1.8c0 0.3 0.2 0.4 0.4 0.4h2.8c0.3 0 0.4-0.2 0.4-0.4z"/>
	<path d="m144.8 91.6l-3.3 4.7h-1.1l3.3-4.7h1.1z"/>
	<path d="m146.3 96.4h-1.1v-4.7h1.1v4.7z"/>
	<path d="m151.8 92.7h-3.9v0.7h3.7v1.1h-3.7v0.7h3.9v1.1h-5v-4.7h5v1.1z"/>
	<path d="m157.5 96.4h-3.7c-0.4 0-0.8-0.2-1.1-0.4-0.3-0.3-0.4-0.7-0.4-1.1v-1.8c0-0.4 0.2-0.8 0.4-1.1 0.3-0.3 0.7-0.4 1.1-0.4h3.7v1.1h-3.7c-0.3 0-0.4 0.1-0.4 0.4v1.8c0 0.3 0.2 0.4 0.4 0.4h3.7v1.1z"/>
	<path d="m128.3 103.6h-1.1v-3.6h-1v-1.1h2.2l-0.1 4.7z"/>
	<path d="m133.5 98.9v1.1l-2.7 3.7h-1.5l2.8-3.6h-3.6v-1.1l5-0.1z"/>
	<path d="m138.5 102.1c0 0.4-0.2 0.8-0.4 1.1-0.3 0.3-0.7 0.4-1.1 0.4h-1.5c-0.4 0-0.8-0.2-1.1-0.4s-0.4-0.7-0.4-1.1v-1.8c0-0.4 0.2-0.8 0.4-1.1 0.3-0.3 0.7-0.4 1.1-0.4h1.5c0.4 0 0.8 0.2 1.1 0.4 0.3 0.3 0.4 0.7 0.4 1.1v1.8zm-1 0v-1.8c0-0.3-0.2-0.4-0.4-0.4h-1.5c-0.3 0-0.4 0.1-0.4 0.4v1.8c0 0.3 0.2 0.4 0.4 0.4h1.5c0.2 0 0.4-0.1 0.4-0.4z"/>
	<path d="m144 100.4c0 0.4-0.1 0.7-0.4 1s-0.6 0.4-1 0.4h-1.3c-0.4 0-0.6 0.1-0.8 0.1-0.2 0.1-0.4 0.3-0.4 0.6h3.6v1.1h-4.7v-0.6c0-1.6 0.8-2.4 2.4-2.4h1.3c0.2 0 0.2-0.1 0.2-0.4 0-0.2-0.1-0.3-0.2-0.3h-3.4v-1.1h3.4c0.4 0 0.7 0.2 1 0.4s0.3 0.7 0.3 1.2z"/>
	<path d="m149.5 102.6h-0.8v0.9h-1.1v-0.9h-3.1v-1.1l2.7-2.7h1.5v2.7h0.8v1.1zm-1.9-1v-1.6l-1.7 1.6h1.7z"/>
</svg>
